<?xml version="1.0" encoding="UTF-8"?>
<!DOCTYPE svg PUBLIC "-//W3C//DTD SVG 1.1//EN" "http://www.w3.org/Graphics/SVG/1.1/DTD/svg11.dtd">
<svg version="1.1" xmlns="http://www.w3.org/2000/svg" xmlns:xlink="http://www.w3.org/1999/xlink" width="375" height="228"  xml:space="preserve" id="morningStarFullCanvas">
    <!-- Generated by PaintCode - http://www.paintcodeapp.com -->
    <g id="morningStarFullCanvas-page1">
        <g id="morningStarFullCanvas-iPhoneXS">
            <g id="morningStarFullCanvas-morningstar">
                <path id="morningStarFullCanvas-line" fill-rule="evenodd" stroke="rgb(245, 150, 111)" stroke-width="1" stroke-linecap="square" stroke-miterlimit="4" fill="none" d="M 111.55,219 L 264.29,219.25" />
                <rect id="morningStarFullCanvas-label" stroke="rgb(255, 255, 255)" stroke-width="1" stroke-miterlimit="10" fill="none" x="86.38" y="190" width="200.72" height="27" />
                <text  fill="rgb(171, 171, 171)" font-family="Lato-Light, Lato, sans-serif" font-size="18" x="86.38" y="190"><tspan x="86.38" y="208">Connected Sport Solution</tspan></text>
                <g id="morningStarFullCanvas-morningStarSVG">
                    <g id="morningStarFullCanvas-f9d883ff">
                        <path id="morningStarFullCanvas-shape" stroke="none" fill="rgb(249, 216, 131)" d="M 6.04,-0 L 7.14,-0 C 27.93,8.88 48.9,17.4 69.43,26.89 80.74,31.96 92.34,36.67 102.58,43.74 108.83,47.95 113.94,53.54 118.82,59.2 117.77,46.69 117.84,34.05 119.58,21.6 134.22,17.19 148.75,12.39 163.42,8.06 171.29,4.95 179.8,3.69 187.44,-0 L 188.12,-0 C 196.84,3.88 206.3,5.75 215.26,9.04 227.59,12.46 239.65,16.82 252.01,20.14 254.87,20.84 257,23.36 257.06,26.34 258.03,37.15 258.07,48.05 257.19,58.88 264.47,49.31 274.39,42.15 285.02,36.69 312.41,23.46 340.62,12.03 368.53,-0 L 369.39,-0 C 370.51,4.15 372.06,8.64 370.3,12.85 367.76,20.15 361.25,24.93 354.77,28.58 343.2,35.04 330.31,38.54 317.53,41.61 315.44,41.78 314.31,43.58 313.49,45.26 322.92,45.38 332.07,42.53 341.11,40.11 348.31,38.22 354.92,34.84 361.61,31.66 366.52,30.69 371.41,33.16 374.95,36.42 L 374.95,38.53 C 372.63,41.69 369.76,44.49 366.23,46.28 354.82,52.38 342.3,56.47 329.45,58.06 326.4,58.46 323.36,58.96 320.4,59.76 321.17,60.59 322.72,62.22 323.49,63.04 333.78,62.99 344.71,59.65 354.51,64.11 357.81,67.36 358.2,75.06 353.12,77 347.2,79.81 340.67,80.89 334.23,81.71 320.36,83.91 306.28,83.56 292.33,84.6 292.87,78.8 292.47,72.2 287.82,68.03 283.64,63.16 275.77,62.44 270.63,66.14 266.46,70.21 267.05,78.49 272.4,81.36 272.89,77.56 271.32,73.36 273.11,69.83 277.17,66.94 282.93,68.95 285.32,72.99 288.69,78.44 286.79,85.94 282,89.91 276.98,94.06 269.36,93.81 263.97,90.53 259.85,88.33 256.88,84.67 254.04,81.1 249.85,97.79 242.86,114.03 231.63,127.24 220.68,140.24 205.65,149.16 189.83,155 L 185.55,155 C 168.13,148.7 152.04,138.03 140.96,123.06 131.26,110.69 125.89,95.67 121.86,80.67 117.49,87.56 110.08,93.88 101.37,92.92 93.55,92.62 87.43,84.21 89.13,76.71 89.82,72.2 94.04,68.24 98.73,68.45 100.93,68.75 104.13,69.95 103.65,72.7 103.61,75.21 103.12,77.67 102.84,80.16 103.73,80.19 105.52,80.25 106.42,80.29 107.29,76.15 109.12,71.33 106.41,67.49 102.95,63.72 96.97,62.47 92.37,64.86 84.89,68.03 81.79,77.12 83.47,84.65 65.63,83.36 47.51,83.88 30,79.64 26.2,78.45 21.89,77.41 19.35,74.1 17.78,70.42 18.66,64.55 23.11,63.31 33.15,60.03 43.72,63.15 53.99,63.06 53.96,62.08 53.91,60.09 53.87,59.1 37.93,57.51 22.02,53.49 8.09,45.39 5.15,43.76 2.73,41.35 0.99,38.49 L 0.99,36.33 C 5.03,32.42 11.68,29.6 16.91,32.83 27.78,38.78 39.93,41.86 51.99,44.34 55.36,45.09 58.83,45.45 62.29,45.25 61.76,44.51 60.72,43.04 60.19,42.3 45.2,38.22 29.6,34.66 16.55,25.81 11.92,22.55 7.59,18.45 5.49,13.07 4.04,8.8 5.32,4.29 6.04,-0 L 6.04,-0 Z M 6.04,-0" />
                        <path id="morningStarFullCanvas-path" stroke="none" fill="rgb(249, 216, 131)" d="M 164.89,44.39 C 172.41,44.02 174.94,52 175.55,58.02 169.61,56.06 164.1,51.2 164.89,44.39 Z M 164.89,44.39" />
                        <path id="morningStarFullCanvas-path2" stroke="none" fill="rgb(249, 216, 131)" d="M 204.51,46.53 C 206.11,44.71 208.8,45.09 210.93,44.47 210.39,47.02 210.57,49.95 208.88,52.11 206.73,55.08 203.28,56.6 200.04,58.06 200.81,54.02 201.51,49.6 204.51,46.53 Z M 204.51,46.53" />
                        <path id="morningStarFullCanvas-path3" stroke="none" fill="rgb(249, 216, 131)" d="M 154.58,84.28 C 158.65,81.56 163.86,82.28 168.47,82.64 165.29,87.09 160.18,90.66 154.45,89.85 152.69,88.55 152.4,85.31 154.58,84.28 Z M 154.58,84.28" />
                        <path id="morningStarFullCanvas-path4" stroke="none" fill="rgb(249, 216, 131)" d="M 207.31,82.54 C 212.38,82.4 219.97,80.91 222.54,86.67 222.84,87.21 223.45,88.28 223.76,88.81 217.42,91.5 210.67,88.09 207.31,82.54 Z M 207.31,82.54" />
                        <path id="morningStarFullCanvas-path5" stroke="none" fill="rgb(249, 216, 131)" d="M 188.27,96.67 C 191.58,101.17 193.78,107.76 190.3,112.77 188.45,112.95 186.24,113.15 185.82,110.82 183.84,106.07 186.43,101.04 188.27,96.67 Z M 188.27,96.67" />
                    </g>
                    <g id="morningStarFullCanvas-ffffffff">
                        <path id="morningStarFullCanvas-shape2" stroke="none" fill="rgb(255, 255, 255)" d="M 187.66,10.03 C 189.98,9.84 192.24,10.67 194.43,11.3 207.83,15.69 221.38,19.66 234.84,23.9 239.25,25.33 243.89,26.22 248.09,28.25 249.87,31.55 249.59,35.5 249.91,39.14 250.58,61.79 247.42,85.16 236.8,105.49 229.46,119.69 217.84,131.73 203.57,139.16 198.77,141.58 193.89,144.32 188.46,145 183.03,144.31 178.17,141.52 173.36,139.12 158.07,131.12 145.94,117.81 138.62,102.33 129.22,82.74 126.45,60.64 127.09,39.12 127.41,35.5 127.17,31.6 128.84,28.26 133.04,26.24 137.67,25.34 142.08,23.92 155.54,19.69 169.08,15.67 182.49,11.28 184.18,10.76 185.89,10.22 187.66,10.03 L 187.66,10.03 Z M 187.23,42.45 C 184.32,46.71 182.14,51.39 179.6,55.86 178.13,58.53 175.77,60.83 172.7,61.47 167.22,62.82 161.57,63.49 156.23,65.39 159.77,71.81 166.88,75.73 169.4,82.7 170.42,89.5 167.37,96.28 168.77,103.12 174.67,101.22 179.84,97.53 185.79,95.84 193.89,94.59 199.94,101.98 207.86,102.34 207.92,96.04 206.04,89.86 206.33,83.57 207.68,75.81 216.39,72.48 219.06,65.37 213.12,61.93 205.67,63.23 199.73,59.93 193.95,55.35 193.01,47.11 187.23,42.45 L 187.23,42.45 Z M 164.86,44.78 C 164.07,51.6 169.59,56.46 175.53,58.43 174.93,52.4 172.39,44.42 164.86,44.78 L 164.86,44.78 Z M 204.53,46.92 C 201.53,50 200.82,54.43 200.06,58.46 203.3,57 206.75,55.48 208.9,52.51 210.6,50.35 210.42,47.42 210.96,44.87 208.83,45.48 206.14,45.11 204.53,46.92 L 204.53,46.92 Z M 154.53,84.69 C 152.36,85.72 152.65,88.96 154.41,90.26 160.15,91.08 165.26,87.5 168.44,83.05 163.83,82.68 158.62,81.97 154.53,84.69 L 154.53,84.69 Z M 207.33,82.95 C 210.7,88.5 217.46,91.91 223.8,89.22 223.49,88.69 222.89,87.62 222.59,87.09 220.01,81.32 212.41,82.81 207.33,82.95 L 207.33,82.95 Z M 188.27,97.09 C 186.42,101.45 183.83,106.49 185.82,111.24 186.23,113.57 188.45,113.37 190.31,113.19 193.79,108.18 191.59,101.59 188.27,97.09 Z M 188.27,97.09" />
                    </g>
                    <g id="morningStarFullCanvas-f4af4fff">
                        <path id="morningStarFullCanvas-path6" stroke="none" fill="rgb(244, 175, 79)" d="M 186.3,42.14 C 192.09,46.84 193.04,55.15 198.83,59.76 204.79,63.09 212.26,61.78 218.2,65.25 215.53,72.42 206.8,75.77 205.44,83.6 205.15,89.94 207.04,96.17 206.98,102.53 199.05,102.16 192.98,94.71 184.87,95.97 178.9,97.67 173.72,101.39 167.8,103.31 166.4,96.41 169.45,89.58 168.43,82.72 165.91,75.7 158.78,71.74 155.23,65.27 160.59,63.36 166.25,62.68 171.74,61.31 174.82,60.67 177.18,58.35 178.66,55.67 181.2,51.15 183.39,46.44 186.3,42.14 Z M 186.3,42.14" />
                    </g>
                </g>
                
                <text  fill="rgb(245, 150, 111)" font-family="OLDSPORT01COLLEGENCV, 'OLD SPORT 01 COLLEGE NCV', sans-serif" font-size="36" x="55.07" y="151"><tspan x="55.07" y="185">Morning Star</tspan></text>
            </g>
        </g>
    </g>
</svg>
